<?xml version="1.0" standalone="no"?>
<!DOCTYPE svg PUBLIC "-//W3C//DTD SVG 20010904//EN"
 "http://www.w3.org/TR/2001/REC-SVG-20010904/DTD/svg10.dtd">
<svg version="1.0" xmlns="http://www.w3.org/2000/svg"
 width="850.000000pt" height="850.000000pt" viewBox="0 0 850.000000 850.000000"
 preserveAspectRatio="xMidYMid meet">

<g transform="translate(0.000000,850.000000) scale(0.100000,-0.100000)"
fill="#000000" stroke="none">
<path d="M4338 7850 c-65 -16 -151 -66 -198 -114 -36 -37 -49 -44 -70 -39 -14
3 -29 9 -35 13 -5 3 -21 7 -34 8 -13 0 -27 5 -30 11 -8 12 -121 -2 -176 -22
-81 -30 -281 -119 -322 -143 -30 -17 -40 -29 -36 -40 4 -11 -28 -48 -105 -122
-100 -97 -111 -112 -126 -164 -9 -31 -16 -63 -16 -71 0 -8 -13 -38 -29 -68
-58 -108 -67 -127 -99 -214 -14 -36 -54 -189 -89 -335 -13 -58 -30 -125 -37
-150 -10 -33 -11 -81 -5 -185 10 -188 20 -268 30 -235 l7 25 1 -25 c1 -22 73
-174 129 -273 12 -21 22 -45 22 -54 0 -12 6 -10 26 10 14 14 23 31 19 37 -3 5
-2 10 4 10 5 0 12 -34 16 -76 5 -48 11 -71 16 -63 6 9 9 2 9 -23 0 -20 5 -40
10 -43 14 -9 12 -109 -2 -123 -10 -10 -10 -15 -1 -20 7 -4 12 -21 11 -37 -1
-60 2 -73 21 -78 12 -3 19 -14 19 -28 1 -33 12 -90 22 -114 4 -11 11 -29 15
-40 4 -14 8 -16 14 -7 4 7 6 -12 3 -43 -4 -47 -2 -55 12 -55 13 0 16 5 10 23
-4 12 -6 46 -5 76 2 39 -4 67 -20 100 -57 118 -63 149 -63 341 1 184 10 293
25 284 5 -3 9 2 9 10 0 9 9 25 20 36 12 12 18 25 15 29 -2 5 2 14 10 21 8 7
15 19 15 26 0 16 36 19 45 3 10 -15 45 19 45 44 0 16 5 19 30 14 16 -4 32 -2
35 3 4 6 11 8 16 5 12 -8 11 2 -2 28 -12 21 -11 21 8 5 21 -19 53 -24 53 -9 0
5 -6 12 -12 15 -7 3 -3 3 8 1 12 -3 34 0 50 6 35 14 215 18 206 5 -3 -5 2 -7
11 -3 10 4 29 2 44 -4 19 -7 29 -7 31 0 2 7 10 5 19 -4 11 -12 19 -13 28 -5
10 8 15 8 20 0 5 -8 13 -6 27 7 33 30 38 47 22 77 -8 16 -14 35 -14 42 0 23
-26 16 -41 -12 l-13 -26 -22 25 c-12 14 -25 23 -28 20 -3 -4 -6 -2 -6 4 0 15
-93 36 -131 31 -38 -6 -121 7 -160 24 -28 13 -39 28 -19 28 6 0 10 7 10 15 0
8 10 23 22 35 12 11 19 20 15 20 -4 0 -3 10 4 21 9 18 13 19 21 8 8 -11 9 -10
4 3 -6 19 14 63 37 81 18 14 66 165 71 222 2 22 9 41 15 43 6 2 11 11 11 20 1
21 25 54 33 46 3 -4 13 1 22 10 9 9 23 16 30 16 8 0 20 9 28 20 8 11 17 17 21
13 4 -4 11 -1 16 7 8 13 10 12 10 -2 0 -21 31 -88 41 -88 4 0 9 -9 12 -20 3
-13 10 -18 21 -14 10 4 18 -1 21 -12 4 -11 13 -32 21 -47 7 -16 14 -34 14 -42
0 -7 7 -18 16 -26 13 -11 14 -9 8 17 -3 16 -11 33 -15 39 -5 5 -9 17 -9 26 0
10 -6 19 -12 22 -10 4 -10 7 0 18 10 11 12 10 12 -5 0 -10 4 -14 12 -10 6 4 8
3 4 -4 -3 -6 -2 -13 4 -17 5 -3 10 0 10 7 0 7 9 0 20 -17 11 -16 20 -40 20
-52 0 -13 5 -23 10 -23 6 0 10 -9 10 -21 0 -14 5 -19 14 -16 8 3 16 -2 19 -14
4 -16 2 -19 -16 -13 -20 6 -20 6 -4 -10 9 -10 21 -14 27 -11 5 3 10 2 10 -4 0
-5 16 -30 35 -55 22 -29 35 -57 35 -75 0 -17 5 -33 10 -36 6 -4 10 5 10 19 0
14 5 26 10 26 6 0 10 -9 10 -20 0 -25 15 -26 24 -3 6 15 8 15 16 3 7 -10 5
-19 -7 -27 -9 -7 -14 -16 -10 -20 4 -3 15 1 26 11 16 14 20 15 30 2 7 -8 10
-19 7 -25 -8 -12 26 -23 48 -15 12 5 15 2 10 -9 -4 -12 -1 -14 15 -10 12 3 21
1 21 -6 0 -6 6 -11 14 -11 26 0 27 -19 4 -42 -13 -13 -22 -27 -21 -33 1 -5
-18 -20 -43 -33 -25 -13 -43 -18 -39 -13 3 6 1 11 -4 11 -11 0 -13 -6 -14 -52
-1 -16 -7 -28 -14 -28 -18 0 -16 -25 2 -40 13 -11 18 -10 28 2 18 23 47 30 47
13 0 -16 12 -20 24 -8 4 4 26 8 49 9 23 1 74 3 112 5 104 4 235 -24 235 -51 0
-8 -82 -42 -96 -39 -5 1 -31 1 -59 0 -46 -2 -49 -3 -31 -16 19 -14 17 -15 -18
-15 -20 0 -44 7 -52 15 -13 13 -21 12 -66 -8 -38 -17 -60 -36 -85 -71 -18 -26
-33 -53 -33 -60 0 -7 34 -11 111 -10 80 0 115 -3 124 -13 8 -7 35 -15 62 -16
26 -2 58 -9 71 -16 43 -23 182 45 182 90 0 23 55 36 76 18 27 -22 34 -55 46
-207 14 -184 13 -196 -17 -314 -14 -53 -25 -110 -25 -127 0 -16 -5 -33 -11
-37 -6 -4 -8 -20 -4 -40 4 -22 2 -34 -5 -34 -6 0 -8 -5 -5 -10 4 -6 1 -26 -5
-44 -6 -19 -12 -54 -13 -80 -2 -25 -6 -49 -10 -52 -4 -4 -7 -16 -7 -26 0 -10
-4 -18 -8 -18 -5 0 -9 -6 -9 -12 0 -25 -44 -109 -53 -103 -6 4 -10 -4 -10 -17
0 -13 -12 -34 -25 -47 -14 -13 -24 -26 -21 -28 11 -11 -79 -103 -100 -103 -8
0 -14 -7 -14 -15 0 -8 -6 -15 -13 -15 -7 0 -30 -20 -52 -45 -22 -25 -45 -45
-52 -45 -6 0 -14 -9 -18 -19 -3 -10 -22 -34 -41 -52 -19 -19 -39 -44 -44 -57
-5 -12 -13 -21 -17 -20 -5 1 -34 -10 -66 -25 -91 -42 -144 -50 -312 -44 -135
5 -160 8 -221 32 -67 27 -134 70 -204 134 -19 18 -48 39 -63 47 -16 9 -26 18
-24 21 3 3 -4 15 -16 27 -12 11 -31 38 -42 60 -19 37 -20 38 -26 15 -6 -22 -7
-21 -8 7 -1 19 -12 43 -31 64 -28 31 -34 44 -31 62 0 4 -7 4 -16 1 -11 -4 -14
-3 -9 6 5 7 -4 27 -21 49 -15 20 -33 50 -40 67 -6 16 -12 24 -12 17 -1 -21
-21 -3 -21 19 0 11 -7 22 -15 25 -10 4 -13 13 -10 25 5 13 1 19 -10 19 -14 0
-16 -7 -10 -42 7 -43 32 -97 50 -110 6 -4 6 -8 2 -8 -9 0 31 -61 48 -72 5 -4
6 -8 1 -8 -5 0 1 -11 14 -25 12 -13 27 -22 33 -18 6 3 7 1 3 -6 -4 -6 0 -25 8
-43 10 -19 16 -57 16 -97 0 -66 14 -105 65 -186 28 -44 137 -175 180 -215 21
-19 48 -52 61 -73 14 -20 75 -78 137 -127 96 -76 142 -124 180 -186 5 -9 -10
-17 -50 -28 -56 -16 -270 -102 -286 -116 -4 -4 4 -31 18 -61 13 -30 25 -64 25
-76 0 -22 37 -55 76 -67 34 -11 54 -40 60 -90 5 -38 0 -58 -29 -123 -42 -93
-73 -227 -87 -378 -5 -60 -15 -326 -20 -590 -6 -264 -15 -615 -20 -780 -5
-165 -10 -537 -10 -827 l0 -528 410 0 410 0 0 53 c0 46 -31 611 -45 807 -2 41
-9 143 -15 225 -6 83 -17 265 -25 405 -25 406 -62 793 -101 1030 -8 52 -40
202 -71 334 l-56 238 20 35 c11 19 44 69 73 111 50 71 54 75 60 52 3 -15 9
-20 13 -14 4 7 22 15 40 18 22 4 39 16 51 37 10 17 28 34 39 38 20 7 18 10
-22 30 -41 21 -43 22 -57 4 -7 -10 -14 -21 -14 -25 0 -5 -5 -8 -10 -8 -6 0 -3
14 6 31 18 37 24 29 -86 118 -75 61 -133 93 -225 126 -37 13 -59 30 -83 61
-18 24 -85 90 -148 146 -64 57 -139 132 -168 167 -94 118 -122 156 -129 174
-3 9 -11 17 -16 17 -6 0 -7 7 -4 17 4 9 2 14 -3 11 -5 -4 -10 9 -11 27 -2 19
2 37 7 40 6 3 10 2 10 -4 0 -5 20 -13 45 -17 25 -3 43 -10 40 -14 -2 -4 6 -5
19 -3 13 3 30 -2 39 -11 8 -9 18 -16 21 -16 3 0 34 -13 68 -28 98 -45 172 -60
314 -66 116 -5 140 -4 200 15 37 12 92 22 122 23 29 1 57 7 60 13 13 19 130
55 166 51 20 -2 37 1 40 7 2 6 11 2 22 -8 17 -16 17 -17 2 -11 -13 4 -18 1
-18 -10 0 -9 6 -16 13 -16 6 0 3 -7 -8 -16 -11 -8 -19 -20 -18 -25 2 -5 -1 -9
-7 -9 -11 0 -67 -55 -142 -140 -88 -102 -89 -102 -171 -165 -43 -33 -95 -72
-114 -87 -20 -16 -31 -28 -25 -28 6 0 26 13 44 28 18 16 67 52 110 80 42 28
93 72 114 98 21 25 92 93 159 151 66 58 128 115 138 127 10 11 27 30 36 42 27
31 33 68 32 184 -1 99 0 109 28 160 87 162 116 237 128 327 3 27 9 53 13 58 4
6 10 30 13 55 9 65 42 165 51 152 12 -19 26 -14 26 11 0 18 2 19 10 7 8 -13
10 -12 11 5 1 11 0 28 -1 38 -1 10 4 25 10 32 7 9 9 26 6 41 -5 19 -3 24 5 18
9 -5 11 -1 7 14 -4 16 -2 19 10 15 11 -5 13 -3 7 6 -4 8 -2 17 5 21 10 6 13
43 13 146 -1 76 1 142 4 147 3 5 11 -1 19 -12 8 -11 21 -18 29 -15 11 5 15 -2
16 -22 2 -38 18 82 23 166 2 36 9 81 15 100 46 146 81 359 81 487 0 58 -7 105
-24 160 -13 43 -34 111 -46 152 -12 40 -43 108 -68 150 -64 109 -83 158 -77
195 8 42 -42 118 -110 166 -27 19 -79 62 -115 96 -74 69 -199 169 -252 202
-58 36 -193 72 -270 72 -43 0 -67 4 -65 11 1 6 -17 12 -42 14 -24 2 -50 10
-59 18 -13 13 -12 16 7 27 12 6 19 15 16 21 -4 5 2 9 12 9 17 1 17 1 0 11 -11
6 -44 8 -80 5 -117 -11 -149 -20 -141 -40 2 -6 -9 -25 -26 -41 -23 -22 -30
-25 -30 -12 0 9 -4 17 -10 17 -21 0 -9 30 15 36 14 3 30 14 35 24 8 15 6 17
-13 13 -44 -11 45 68 112 99 60 28 71 29 150 25 47 -2 97 -8 111 -11 l25 -7
-25 15 c-32 18 -153 28 -202 16z m-326 -157 c24 -9 47 -19 51 -23 8 -7 -15
-126 -27 -138 -4 -4 -15 3 -24 15 -20 25 -81 63 -102 63 -13 0 -13 -1 0 -10
12 -8 10 -10 -10 -10 -36 0 -71 11 -65 20 9 15 -18 25 -80 30 -55 5 -58 6 -37
18 34 20 161 51 209 51 24 1 62 -6 85 -16z m363 -3 c4 -6 -6 -10 -22 -10 -22
0 -25 2 -13 10 19 12 27 12 35 0z m-65 -20 c-19 -13 -30 -13 -30 0 0 6 10 10
23 10 18 0 19 -2 7 -10z m-510 -50 c10 0 11 -3 3 -11 -14 -14 -63 -4 -63 12 0
7 9 9 23 5 12 -3 29 -6 37 -6z m304 -39 c-27 -31 -38 -26 -17 9 10 17 21 26
26 21 5 -5 1 -18 -9 -30z m531 -20 c-6 -5 -50 -11 -100 -14 -88 -5 -89 -4 -40
8 59 15 153 19 140 6z m-745 -17 c16 -10 18 -13 5 -8 -11 4 -38 10 -60 14
l-40 7 35 1 c19 1 46 -6 60 -14z m-370 2 c0 -2 -7 -7 -16 -10 -8 -3 -12 -2 -9
4 6 10 25 14 25 6z m880 -1182 c0 -2 -9 -4 -20 -4 -11 0 -20 4 -20 9 0 5 9 7
20 4 11 -3 20 -7 20 -9z m-390 -314 c0 -5 -4 -10 -10 -10 -5 0 -10 5 -10 10 0
6 5 10 10 10 6 0 10 -4 10 -10z m-510 -61 c0 -14 -16 -11 -29 5 -10 12 -8 13
8 9 12 -3 21 -9 21 -14z m1200 -149 c0 -5 -2 -10 -4 -10 -3 0 -8 5 -11 10 -3
6 -1 10 4 10 6 0 11 -4 11 -10z m-83 -31 l12 -30 -32 6 c-45 10 -52 20 -26 39
31 21 33 21 46 -15z m188 -20 c-4 -5 -13 -9 -22 -9 -13 0 -13 3 -3 15 13 15
35 11 25 -6z m476 -213 c3 -97 -10 -161 -40 -197 -18 -22 -18 -20 -13 87 5
120 12 151 36 151 12 0 16 -11 17 -41z m-1957 -461 c3 -8 1 -15 -4 -15 -6 0
-10 7 -10 15 0 8 2 15 4 15 2 0 6 -7 10 -15z m53 -317 c-3 -8 -6 -5 -6 6 -1
11 2 17 5 13 3 -3 4 -12 1 -19z m137 -174 c3 -8 2 -12 -4 -9 -6 3 -10 10 -10
16 0 14 7 11 14 -7z"/>
<path d="M4200 7735 c0 -9 6 -12 15 -9 8 4 15 7 15 9 0 2 -7 5 -15 9 -9 3 -15
0 -15 -9z"/>
<path d="M4150 6541 c0 -6 5 -13 10 -16 6 -3 10 1 10 9 0 9 -4 16 -10 16 -5 0
-10 -4 -10 -9z"/>
<path d="M3956 6141 c-4 -7 -5 -15 -2 -18 9 -9 19 4 14 18 -4 11 -6 11 -12 0z"/>
<path d="M4875 5960 c-3 -5 -1 -10 4 -10 6 0 11 5 11 10 0 6 -2 10 -4 10 -3 0
-8 -4 -11 -10z"/>
<path d="M3680 5933 c0 -5 -25 -9 -55 -10 -31 0 -62 -7 -70 -13 -8 -6 -18 -9
-23 -6 -4 2 -27 7 -50 10 -36 4 -42 2 -42 -14 0 -10 5 -22 10 -25 6 -4 8 -11
5 -16 -4 -5 -2 -9 3 -9 10 0 9 -30 -1 -47 -4 -7 11 -19 40 -33 27 -12 56 -26
65 -31 25 -13 38 -11 38 4 0 10 14 13 55 9 30 -2 62 -1 72 4 23 10 48 13 161
15 50 1 92 4 92 8 0 3 -9 17 -20 31 -11 14 -20 30 -20 36 0 26 -90 84 -130 84
-25 0 -26 -18 -1 -28 11 -4 -25 -7 -80 -8 -54 0 -99 3 -99 8 0 4 10 8 23 8 13
0 27 4 33 9 5 6 29 11 54 14 l45 4 -52 1 c-29 1 -53 -1 -53 -5z m85 -83 c3 -5
1 -10 -4 -10 -6 0 -11 5 -11 10 0 6 2 10 4 10 3 0 8 -4 11 -10z m125 -30 c0
-11 -14 -20 -40 -25 -23 -4 -23 -5 -10 30 8 22 13 24 30 15 11 -6 20 -15 20
-20z m-220 11 c0 -5 3 -16 6 -25 8 -20 -5 -20 -31 0 -17 13 -18 16 -5 24 19
12 30 12 30 1z"/>
<path d="M3420 5870 c0 -5 5 -10 10 -10 6 0 10 5 10 10 0 6 -4 10 -10 10 -5 0
-10 -4 -10 -10z"/>
<path d="M3186 5497 c3 -10 9 -15 12 -12 3 3 0 11 -7 18 -10 9 -11 8 -5 -6z"/>
<path d="M4430 5415 c0 -2 9 -19 20 -37 21 -35 26 -26 10 16 -8 22 -30 37 -30
21z"/>
<path d="M4481 5288 c-2 -89 -24 -110 -128 -117 -38 -2 -26 -19 20 -29 46 -10
90 7 108 40 15 27 21 102 10 129 -8 21 -10 18 -10 -23z"/>
<path d="M4063 5248 c-42 -20 -26 -33 41 -33 67 0 77 12 30 34 -30 13 -42 13
-71 -1z"/>
<path d="M4278 5246 c-26 -19 -22 -33 10 -34 15 0 40 -1 55 -2 35 -3 44 6 31
28 -14 21 -73 26 -96 8z"/>
<path d="M3980 5170 c0 -5 14 -10 30 -10 17 0 30 5 30 10 0 6 -13 10 -30 10
-16 0 -30 -4 -30 -10z"/>
<path d="M3970 4975 c-7 -8 -19 -15 -26 -15 -26 0 -95 -52 -89 -67 3 -8 5 -17
5 -19 0 -2 6 -4 14 -4 7 0 19 -6 25 -14 7 -8 21 -12 31 -9 11 3 20 0 20 -6 0
-6 12 -11 28 -12 26 0 26 -1 5 -9 -29 -12 -30 -30 -2 -30 14 0 19 -5 16 -14
-4 -9 3 -13 24 -12 29 1 37 10 19 21 -13 8 -7 45 10 55 8 5 41 6 74 3 67 -5
186 -4 197 3 4 2 9 -3 12 -10 3 -8 18 -16 34 -18 23 -2 29 -9 31 -32 2 -16 -2
-32 -10 -37 -9 -6 -3 -9 17 -9 22 0 44 12 75 40 24 22 38 40 31 40 -19 0 39
48 62 52 18 3 18 4 0 24 -42 47 -178 89 -189 59 -6 -14 -81 -15 -101 -2 -7 5
-13 5 -13 1 0 -4 -9 1 -20 11 -19 18 -20 17 -20 -2 0 -26 -48 -50 -56 -28 -4
8 -10 15 -15 15 -4 0 -6 -7 -3 -15 7 -18 -7 -20 -25 -2 -11 10 -14 9 -18 -1
-4 -11 -8 -10 -22 2 -17 15 -19 16 -52 16 -12 0 -23 8 -26 20 -6 24 -26 26
-43 5z m290 -39 c0 -3 -4 -8 -10 -11 -5 -3 -10 -1 -10 4 0 6 5 11 10 11 6 0
10 -2 10 -4z"/>
<path d="M3332 4915 c0 -16 2 -22 5 -12 2 9 2 23 0 30 -3 6 -5 -1 -5 -18z"/>
<path d="M5001 4304 c0 -11 3 -14 6 -6 3 7 2 16 -1 19 -3 4 -6 -2 -5 -13z"/>
<path d="M4987 4266 c5 -31 3 -37 -8 -32 -8 4 -3 -2 10 -13 31 -28 41 -26 41
4 0 14 -5 25 -11 25 -6 0 -9 -7 -5 -15 3 -8 1 -15 -4 -15 -6 0 -10 10 -11 23
0 12 -4 31 -9 42 -7 14 -8 8 -3 -19z"/>
<path d="M5026 4181 c-4 -6 0 -18 8 -27 12 -12 16 -12 16 -2 0 22 -17 42 -24
29z"/>
<path d="M3343 4042 c-9 -6 -9 -20 2 -62 l13 -55 0 63 c-1 34 -2 62 -2 62 -1
0 -6 -4 -13 -8z"/>
<path d="M5110 3903 c0 -54 10 -64 58 -62 23 2 47 -3 57 -11 16 -14 122 -23
129 -11 2 3 -2 15 -10 25 -11 16 -16 17 -28 6 -10 -7 -32 -10 -58 -7 -51 5
-121 31 -111 40 3 4 1 7 -5 7 -7 0 -12 5 -12 10 0 6 9 10 20 10 11 0 20 -4 20
-10 0 -5 7 -7 16 -3 21 8 -1 23 -33 23 -13 0 -23 5 -23 10 0 6 -4 10 -10 10
-5 0 -10 -17 -10 -37z"/>
<path d="M3384 3805 c8 -34 67 -167 72 -162 4 4 -65 179 -74 187 -3 3 -2 -8 2
-25z"/>
<path d="M5094 3758 c-4 -13 -17 -44 -29 -70 -25 -51 -9 -57 17 -5 17 33 33
97 24 97 -2 0 -8 -10 -12 -22z"/>
<path d="M4400 3729 c-57 -37 -80 -59 -61 -59 5 0 11 4 13 8 4 10 105 72 118
72 5 0 11 4 14 8 12 21 -31 6 -84 -29z"/>
<path d="M5180 3756 c0 -2 7 -6 15 -10 8 -3 15 -1 15 4 0 6 -7 10 -15 10 -8 0
-15 -2 -15 -4z"/>
<path d="M5223 3717 c3 -9 1 -18 -6 -21 -7 -2 -2 -5 10 -5 12 -1 29 -8 38 -17
11 -11 20 -13 26 -7 7 7 1 17 -18 30 -50 35 -57 38 -50 20z"/>
<path d="M3990 3711 c0 -9 30 -24 36 -18 2 1 -6 8 -16 15 -11 7 -20 8 -20 3z"/>
<path d="M4088 3663 c7 -3 16 -2 19 1 4 3 -2 6 -13 5 -11 0 -14 -3 -6 -6z"/>
<path d="M4538 3660 c-53 -3 -100 -9 -105 -13 -7 -8 237 1 245 8 8 7 -54 9
-140 5z"/>
<path d="M4302 3651 c-11 -7 -11 -9 2 -14 10 -4 16 -1 16 8 0 17 -1 17 -18 6z"/>
<path d="M5086 3638 c-3 -7 -10 -29 -16 -48 -6 -19 -15 -62 -20 -95 -4 -33
-11 -80 -15 -105 -5 -25 -5 -42 -1 -39 3 3 15 55 26 115 10 60 24 126 29 147
8 34 6 54 -3 25z"/>
<path d="M4965 3538 c-38 -49 -83 -115 -100 -147 -16 -32 -35 -64 -42 -72 -9
-11 -7 -14 13 -15 13 -1 24 2 24 7 0 14 30 11 31 -3 0 -7 14 23 31 66 17 44
51 118 75 164 24 47 42 86 41 87 -2 1 -34 -38 -73 -87z"/>
<path d="M3626 3462 c-8 -14 92 -174 128 -204 18 -15 52 -59 76 -98 23 -39 46
-73 51 -75 14 -10 -93 170 -123 204 -16 18 -37 50 -46 70 -9 20 -22 43 -30 52
-7 9 -14 26 -15 38 -1 21 -30 30 -41 13z"/>
<path d="M4660 3360 c0 -6 7 -10 15 -10 8 0 15 2 15 4 0 2 -7 6 -15 10 -8 3
-15 1 -15 -4z"/>
<path d="M4713 3340 c9 -6 15 -15 12 -21 -4 -5 2 -6 12 -2 10 3 15 3 11 -2 -9
-9 20 -34 40 -35 20 0 14 29 -10 44 -13 8 -36 17 -53 21 -25 5 -27 4 -12 -5z"/>
<path d="M6509 3249 c-14 -28 -23 -67 -25 -109 -2 -36 -1 -56 2 -45 3 11 17
58 30 104 14 45 23 85 20 88 -2 3 -15 -14 -27 -38z"/>
<path d="M6905 2708 c-14 -43 -25 -96 -24 -118 1 -20 3 -18 9 10 4 19 12 54
18 78 9 38 7 60 -3 30z"/>
<path d="M6863 2435 c0 -27 2 -38 4 -22 2 15 2 37 0 50 -2 12 -4 0 -4 -28z"/>
<path d="M7178 2350 c2 -47 8 -88 11 -93 9 -9 2 108 -9 148 -4 18 -5 -5 -2
-55z"/>
<path d="M6852 2330 c0 -19 2 -27 5 -17 2 9 2 25 0 35 -3 9 -5 1 -5 -18z"/>
<path d="M6841 2244 c0 -11 3 -14 6 -6 3 7 2 16 -1 19 -3 4 -6 -2 -5 -13z"/>
<path d="M6641 2004 c0 -11 3 -14 6 -6 3 7 2 16 -1 19 -3 4 -6 -2 -5 -13z"/>
<path d="M6812 2000 c0 -14 2 -19 5 -12 2 6 2 18 0 25 -3 6 -5 1 -5 -13z"/>
<path d="M1541 1915 c0 -5 8 -26 19 -45 11 -19 19 -30 19 -25 0 6 -8 26 -19
45 -11 19 -19 31 -19 25z"/>
<path d="M6792 1845 c0 -16 2 -22 5 -12 2 9 2 23 0 30 -3 6 -5 -1 -5 -18z"/>
<path d="M6782 1790 c0 -14 2 -19 5 -12 2 6 2 18 0 25 -3 6 -5 1 -5 -13z"/>
<path d="M6771 1734 c0 -11 3 -14 6 -6 3 7 2 16 -1 19 -3 4 -6 -2 -5 -13z"/>
<path d="M6722 1500 c0 -14 2 -19 5 -12 2 6 2 18 0 25 -3 6 -5 1 -5 -13z"/>
<path d="M6722 1355 c0 -16 2 -22 5 -12 2 9 2 23 0 30 -3 6 -5 -1 -5 -18z"/>
<path d="M6731 1234 c0 -11 3 -14 6 -6 3 7 2 16 -1 19 -3 4 -6 -2 -5 -13z"/>
<path d="M6727 1047 c-5 -55 -6 -101 -4 -104 7 -7 20 136 15 172 -2 17 -7 -14
-11 -68z"/>
<path d="M1850 948 c0 -2 14 -37 31 -78 24 -59 29 -67 24 -35 -6 37 -40 115
-50 115 -3 0 -5 -1 -5 -2z"/>
<path d="M6712 885 c0 -16 2 -22 5 -12 2 9 2 23 0 30 -3 6 -5 -1 -5 -18z"/>
<path d="M7906 860 c3 -14 11 -32 16 -40 6 -10 7 -7 2 10 -3 14 -11 32 -16 40
-6 10 -7 7 -2 -10z"/>
<path d="M6686 685 c-10 -88 -24 -194 -32 -235 -7 -41 -21 -122 -29 -180 -9
-58 -23 -133 -31 -167 -18 -79 -18 -103 1 -103 8 0 15 6 15 13 0 8 3 7 10 -3
14 -22 21 -8 30 62 5 35 20 119 33 188 14 69 28 150 31 180 l5 55 -13 -50 c-7
-27 -21 -95 -31 -150 -10 -55 -24 -113 -31 -130 l-12 -30 -1 35 c-1 19 10 100
23 180 28 163 60 447 54 476 -2 10 -12 -53 -22 -141z"/>
<path d="M7930 795 c0 -5 5 -17 10 -25 5 -8 10 -10 10 -5 0 6 -5 17 -10 25 -5
8 -10 11 -10 5z"/>
<path d="M1672 370 c0 -19 2 -27 5 -17 2 9 2 25 0 35 -3 9 -5 1 -5 -18z"/>
<path d="M1663 250 c0 -41 2 -58 4 -37 2 20 2 54 0 75 -2 20 -4 3 -4 -38z"/>
<path d="M2021 304 c0 -11 3 -14 6 -6 3 7 2 16 -1 19 -3 4 -6 -2 -5 -13z"/>
<path d="M8057 240 c3 -41 7 -77 9 -79 7 -8 2 94 -6 124 -5 18 -6 -1 -3 -45z"/>
<path d="M2032 260 c0 -14 2 -19 5 -12 2 6 2 18 0 25 -3 6 -5 1 -5 -13z"/>
<path d="M8072 125 c0 -16 2 -22 5 -12 2 9 2 23 0 30 -3 6 -5 -1 -5 -18z"/>
<path d="M2081 79 c-1 -19 -10 -30 -36 -42 -19 -9 -35 -21 -35 -27 0 -15 17
-12 23 4 3 7 17 16 31 18 19 4 27 0 32 -14 12 -40 12 -11 -1 37 -9 33 -14 41
-14 24z"/>
</g>
</svg>
